<svg xmlns="http://www.w3.org/2000/svg" width="776" height="256" viewBox="0 0 776 256">
  <g id="Group_900" data-name="Group 900" transform="translate(-586 -408)">
    <path id="Path_1564" data-name="Path 1564" d="M781.625,431.032h0Z" fill="#ef4136"/>
    <path id="Path_1565" data-name="Path 1565" d="M772.3,529.407h0Z" fill="#ef4136"/>
    <rect id="Rectangle_1322" data-name="Rectangle 1322" width="48" height="48" transform="translate(638 512)" fill="#ef4136"/>
    <rect id="Rectangle_1323" data-name="Rectangle 1323" width="48" height="48" transform="translate(586 512)" fill="#ef4136"/>
    <rect id="Rectangle_1324" data-name="Rectangle 1324" width="48" height="48" transform="translate(690 512)" fill="#ef4136"/>
    <path id="Path_1566" data-name="Path 1566" d="M586,508h48V460A48,48,0,0,0,586,508Z" fill="#ef4136"/>
    <rect id="Rectangle_1325" data-name="Rectangle 1325" width="48" height="48" transform="translate(638 460)" fill="#ef4136"/>
    <rect id="Rectangle_1326" data-name="Rectangle 1326" width="48" height="48" transform="translate(690 460)" fill="#ef4136"/>
    <rect id="Rectangle_1327" data-name="Rectangle 1327" width="48" height="48" transform="translate(690 408)" fill="#ef4136"/>
    <rect id="Rectangle_1328" data-name="Rectangle 1328" width="48" height="48" transform="translate(1106 408)" fill="#ef4136"/>
    <path id="Path_1567" data-name="Path 1567" d="M634,612V564H586A48,48,0,0,0,634,612Z" fill="#ef4136"/>
    <path id="Path_1568" data-name="Path 1568" d="M738,564H690v48h0A48,48,0,0,0,738,564Z" fill="#ef4136"/>
    <path id="Path_1569" data-name="Path 1569" d="M1362,564h-48v48h0A48,48,0,0,0,1362,564Z" fill="#ef4136"/>
    <rect id="Rectangle_1329" data-name="Rectangle 1329" width="48" height="48" transform="translate(638 564)" fill="#ef4136"/>
    <path id="Path_1570" data-name="Path 1570" d="M946,664V616H898A48,48,0,0,0,946,664Z" fill="#ef4136"/>
    <path id="Path_1571" data-name="Path 1571" d="M1002,508h48a48,48,0,0,0-48-48h0Z" fill="#ef4136"/>
    <rect id="Rectangle_1330" data-name="Rectangle 1330" width="48" height="48" transform="translate(950 616)" fill="#ef4136"/>
    <rect id="Rectangle_1331" data-name="Rectangle 1331" width="48" height="48" transform="translate(1002 564)" fill="#ef4136"/>
    <path id="Path_1572" data-name="Path 1572" d="M898,508h48V460A48,48,0,0,0,898,508Z" fill="#ef4136"/>
    <path id="Path_1573" data-name="Path 1573" d="M946,612V564H898A48,48,0,0,0,946,612Z" fill="#ef4136"/>
    <path id="Path_1574" data-name="Path 1574" d="M1050,616h-48v48h0A48,48,0,0,0,1050,616Z" fill="#ef4136"/>
    <rect id="Rectangle_1332" data-name="Rectangle 1332" width="48" height="48" transform="translate(950 460)" fill="#ef4136"/>
    <rect id="Rectangle_1333" data-name="Rectangle 1333" width="48" height="48" transform="translate(950 512)" fill="#ef4136"/>
    <rect id="Rectangle_1334" data-name="Rectangle 1334" width="48" height="48" transform="translate(898 512)" fill="#ef4136"/>
    <path id="Path_1575" data-name="Path 1575" d="M1210,508h48V460A48,48,0,0,0,1210,508Z" fill="#ef4136"/>
    <path id="Path_1576" data-name="Path 1576" d="M1258,612V564h-48A48,48,0,0,0,1258,612Z" fill="#ef4136"/>
    <rect id="Rectangle_1335" data-name="Rectangle 1335" width="48" height="48" transform="translate(1210 512)" fill="#ef4136"/>
    <path id="Path_1577" data-name="Path 1577" d="M1154,612V564h-48A48,48,0,0,0,1154,612Z" fill="#ef4136"/>
    <rect id="Rectangle_1336" data-name="Rectangle 1336" width="48" height="48" transform="translate(1106 512)" fill="#ef4136"/>
    <rect id="Rectangle_1337" data-name="Rectangle 1337" width="48" height="48" transform="translate(1002 512)" fill="#ef4136"/>
    <path id="Path_1578" data-name="Path 1578" d="M1314,508h48a48,48,0,0,0-48-48h0Z" fill="#ef4136"/>
    <rect id="Rectangle_1338" data-name="Rectangle 1338" width="48" height="48" transform="translate(1314 512)" fill="#ef4136"/>
    <rect id="Rectangle_1339" data-name="Rectangle 1339" width="48" height="48" transform="translate(950 564)" fill="#ef4136"/>
    <rect id="Rectangle_1340" data-name="Rectangle 1340" width="48" height="48" transform="translate(1054 460)" fill="#ef4136"/>
    <rect id="Rectangle_1341" data-name="Rectangle 1341" width="48" height="48" transform="translate(1106 460)" fill="#ef4136"/>
    <rect id="Rectangle_1342" data-name="Rectangle 1342" width="48" height="48" transform="translate(1054 512)" fill="#ef4136"/>
    <rect id="Rectangle_1343" data-name="Rectangle 1343" width="48" height="48" transform="translate(1054 564)" fill="#ef4136"/>
    <rect id="Rectangle_1344" data-name="Rectangle 1344" width="48" height="48" transform="translate(1262 460)" fill="#ef4136"/>
    <rect id="Rectangle_1345" data-name="Rectangle 1345" width="48" height="48" transform="translate(1262 512)" fill="#ef4136"/>
    <rect id="Rectangle_1346" data-name="Rectangle 1346" width="48" height="48" transform="translate(1262 564)" fill="#ef4136"/>
    <rect id="Rectangle_1347" data-name="Rectangle 1347" width="48" height="48" transform="translate(1158 460)" fill="#ef4136"/>
    <rect id="Rectangle_1348" data-name="Rectangle 1348" width="48" height="48" transform="translate(1158 564)" fill="#ef4136"/>
    <path id="Path_1579" data-name="Path 1579" d="M742,508h48V460A48,48,0,0,0,742,508Z" fill="#ef4136"/>
    <path id="Path_1580" data-name="Path 1580" d="M894,512H846v48h0A48,48,0,0,0,894,512Z" fill="#ef4136"/>
    <path id="Path_1581" data-name="Path 1581" d="M846,508h48a48,48,0,0,0-48-48h0Z" fill="#ef4136"/>
    <rect id="Rectangle_1349" data-name="Rectangle 1349" width="48" height="48" transform="translate(742 512)" fill="#ef4136"/>
    <rect id="Rectangle_1350" data-name="Rectangle 1350" width="48" height="48" transform="translate(794 512)" fill="#ef4136"/>
    <rect id="Rectangle_1351" data-name="Rectangle 1351" width="48" height="48" transform="translate(794 460)" fill="#ef4136"/>
    <path id="Path_1582" data-name="Path 1582" d="M790,612V564H742A48,48,0,0,0,790,612Z" fill="#ef4136"/>
    <rect id="Rectangle_1352" data-name="Rectangle 1352" width="48" height="48" transform="translate(794 564)" fill="#ef4136"/>
    <rect id="Rectangle_1353" data-name="Rectangle 1353" width="48" height="48" transform="translate(846 564)" fill="#ef4136"/>
  </g>
</svg>
